<?xml version="1.0" encoding="UTF-8" standalone="no"?>
<!-- Created with Inkscape (http://www.inkscape.org/) -->

<svg
   width="29.397289mm"
   height="12.448852mm"
   viewBox="0 0 29.397289 12.448852"
   version="1.1"
   id="svg5"
   xmlns="http://www.w3.org/2000/svg"
   xmlns:svg="http://www.w3.org/2000/svg">
  <defs
     id="defs2" />
  <g
     id="layer1"
     transform="translate(-48.76243,-126.58365)">
    <path
       fill="#694d42"
       d="m 73.411356,134.52023 c 0.489459,0.2492 1.397887,0.48251 1.880397,0.41202 1.25095,-0.18367 2.153421,-0.90644 2.700464,-1.90819 0.231326,-0.42394 0.251183,-1.28273 -0.120131,-1.37605 -0.470596,-0.11815 -1.029552,-0.0258 -1.897275,0.38422 -0.882615,0.41698 -1.095078,1.07622 -2.134558,0.56889"
       id="path132"
       style="stroke-width:0.0992816" />
    <path
       fill="#b3937c"
       d="m 73.645661,133.65747 c 0.181686,0.12113 0.207499,0.18665 0.357414,0.3455 0.294867,0.31374 0.991825,0.33061 1.126848,0.3326 0.80319,0.0109 1.191382,-0.18367 1.709632,-0.5262 0.518251,-0.34252 1.005725,-1.0911 1.093093,-1.46242 0.06056,-0.25614 0.09134,-0.45074 0.07943,-0.60859 -0.03872,-0.0437 -0.08439,-0.0764 -0.138994,-0.0904 -0.470596,-0.11815 -1.029552,-0.0258 -1.897275,0.38422 -0.882615,0.41698 -1.095078,1.07622 -2.134558,0.56889 l -0.226362,1.00969 z"
       opacity="0.44"
       id="path134"
       style="stroke-width:0.0992816" />
    <path
       fill="#694d42"
       d="m 77.973353,132.15832 c 0.01787,-0.0943 0.03078,-0.17871 0.03674,-0.25516 l -0.533143,-0.23331 0.03078,-0.0695 c -0.183671,-0.003 -0.386206,0.0238 -0.614554,0.0824 l 0.256147,0.11318 -0.26409,0.59867 -0.598669,-0.26409 0.128074,-0.28891 c -0.106232,0.0417 -0.508323,0.21246 -0.678095,0.3177 l 0.223384,0.0983 -0.26409,0.59867 -0.59569,-0.27005 c -0.112188,0.0705 -0.223384,0.12808 -0.343515,0.16282 l -0.600655,1.35818 c 0.07248,0.0367 0.151902,0.0655 0.23232,0.0884 l 0.244233,-0.55201 0.598669,0.26409 c 0,0 -0.124102,0.277 -0.189628,0.42493 0.03872,0.002 0.209484,0.003 0.267068,0.001 l 0.149915,-0.32565 0.529172,0.22934 c 0.158851,-0.0457 0.30281,-0.10722 0.445775,-0.18168 l 0.216434,-0.50833 0.339544,0.1519 c 0.06851,-0.0556 0.136016,-0.11715 0.200549,-0.18267 l -0.439818,-0.19559 0.26409,-0.59867 0.603633,0.26707 c 0.04865,-0.0725 0.09233,-0.14396 0.131052,-0.21345 l -0.634411,-0.28097 0.26409,-0.59867 z m -2.643873,1.52298 -0.598669,-0.26409 0.264089,-0.59867 0.598669,0.26409 z m 0.826024,0.36536 -0.598669,-0.26409 0.264089,-0.59867 0.59867,0.26409 z m 0.364364,-0.82602 -0.598669,-0.2641 0.26409,-0.59866 0.598669,0.26409 z"
       id="path136"
       style="stroke-width:0.0992816" />
    <path
       fill="#825b4e"
       d="m 67.438565,127.01949 c -0.102261,-0.0159 -0.204521,-0.0278 -0.307774,-0.0338 -0.04269,-0.003 -0.08935,-0.004 -0.126088,0.0179 -0.03078,0.0179 -0.05063,0.0496 -0.06652,0.0814 a 0.69249033,0.69249033 0 0 0 -0.02879,0.56491 c 0.01787,0.0447 0.05262,0.0943 0.09928,0.0864 0.01886,-0.003 0.03376,-0.0149 0.04865,-0.0268 a 2.9605824,2.9605824 0 0 0 0.405069,-0.38323 c 0.02085,-0.0238 0.04071,-0.0625 0.01588,-0.0834"
       id="path138"
       style="stroke-width:0.0992816" />
    <path
       fill="#694d42"
       d="m 71.4148,136.33411 c -0.858788,0.41599 -1.427672,0.90148 -2.023363,1.49717 -0.04468,0.0447 -0.231326,0.2482 -0.11616,0.30976 0.115167,0.0615 0.400106,-0.14694 0.481517,-0.0923 0.0973,0.0645 0.02581,0.17871 0.128073,0.25218 0.102261,0.0735 0.377271,-0.14098 0.516266,-0.0784 0.138994,0.0625 0.07744,0.16977 0.158851,0.26508 0.106231,0.1251 0.342522,0.009 0.406062,-0.0417 0.374292,-0.29586 1.306548,-1.18443 1.471356,-1.37604 0.21842,-0.25416 0.357414,-0.59569 0.162822,-0.82206 m -4.079488,-0.19558 a 7.5573283,7.5573283 0 0 0 -1.462421,0.64136 c -0.0963,0.0546 -0.191613,0.11318 -0.271039,0.18963 -0.03475,0.0327 -0.07248,0.0913 -0.03773,0.1241 0.07943,0.0725 0.231326,-0.0457 0.346493,0.0447 0.03971,0.0318 0.01688,0.16878 0.04666,0.21047 0.03177,0.0437 0.09233,0.0596 0.146937,0.0556 0.0546,-0.004 0.106232,-0.0248 0.158851,-0.0407 0.116159,-0.0348 0.235297,-0.0566 0.311745,0.0347 0.04765,0.0576 0.04468,0.1112 0.07545,0.17276 0.02085,0.0427 0.0556,0.0764 0.141973,0.0754 0.131052,-0.001 0.251183,-0.0606 0.3594,-0.13304 0.488466,-0.32763 0.948141,-0.69298 1.407815,-1.05735"
       id="path140"
       style="stroke-width:0.0992816" />
    <path
       fill="#825b4e"
       d="m 70.411061,127.43151 c 0.343515,0.0963 0.428897,-0.002 0.68703,0.0179 0.330608,0.0248 0.290895,0.33756 0.242247,0.51031 -0.06255,0.2214 -0.185657,0.4011 -0.361386,0.54903 -0.02978,0.0248 -0.06354,0.0506 -0.103252,0.0536 -0.04666,0.004 -0.08935,-0.0248 -0.125095,-0.0546 -0.234305,-0.19161 -0.383228,-0.48449 -0.400106,-0.78631"
       id="path142"
       style="stroke-width:0.0992816" />
    <path
       fill="#b38a6d"
       d="m 66.922299,130.28487 c 0,0 -0.608597,0.0705 -0.822053,0.72377 -0.312737,0.95509 0.518251,1.50908 0.518251,1.50908 0,0 -0.228348,1.95684 0.964026,3.02908 1.192374,1.07225 1.581559,1.11196 2.975475,1.36712 1.393916,0.25515 2.693514,-0.64335 3.029087,-1.00474 0.335572,-0.36138 0.857794,-1.11493 0.951119,-2.05215 0.09333,-0.93623 -0.736671,-2.57537 -1.487241,-3.43118 -0.75057,-0.85581 -2.292416,-2.18221 -2.292416,-2.18221 l -2.223911,2.073 z"
       id="path144"
       style="stroke-width:0.0992816" />
    <path
       fill="#b38a6d"
       d="m 70.507364,127.5159 c -0.554985,-0.77837 -1.171525,-0.93225 -1.849619,-0.93225 -0.731707,0 -1.425687,0.53711 -1.745374,0.96204 -0.258132,0.34451 -0.579805,0.90446 -0.625475,1.54879 -0.03574,0.50634 0.125095,0.97991 0.625475,1.33038 0.50038,0.35046 2.488994,0.76844 3.30509,0.2075 0.714829,-0.49145 0.957077,-1.15167 0.885594,-1.70566 -0.05063,-0.39812 -0.165801,-0.80816 -0.595691,-1.4108 z"
       id="path146"
       style="stroke-width:0.0992816" />
    <path
       id="ellipse148"
       style="fill:#212121;stroke-width:0.0992816"
       transform="rotate(-17.767999)"
       d="m 27.208879,143.0107 a 0.24125472,0.31273758 0 0 1 -0.241254,0.31273 0.24125472,0.31273758 0 0 1 -0.241255,-0.31273 0.24125472,0.31273758 0 0 1 0.241255,-0.31274 0.24125472,0.31273758 0 0 1 0.241254,0.31274 z" />
    <path
       fill="#ffecb3"
       d="m 67.265814,129.45388 c -0.05163,0.36139 0.108217,0.90545 0.242248,0.89751 0.111195,-0.007 0.137009,-0.22736 0.137009,-0.22736 0,0 0.09531,0.28197 0.270046,0.26409 0.166794,-0.0179 0.158851,-0.61455 0.201542,-0.90644 l -0.565906,-0.23132 z"
       id="path150"
       style="stroke-width:0.0992816" />
    <path
       fill="#212121"
       d="m 66.890529,127.78198 c 0.03276,-0.10127 0.125095,-0.23331 0.275011,-0.22934 0.159844,0.005 0.132044,0.2343 0.07744,0.35543 -0.0556,0.12112 -0.183671,0.23827 -0.303802,0.16282 -0.0824,-0.0516 -0.07148,-0.21743 -0.04865,-0.28891 z"
       id="path152"
       style="stroke-width:0.0992816" />
    <path
       fill="#212121"
       d="m 67.879376,128.03415 c -0.04964,-0.0655 -0.143959,-0.0745 -0.204521,-0.0199 -0.151901,0.138 -0.298838,0.26508 -0.362378,0.36635 -0.0417,0.0685 -0.07843,0.20651 0.002,0.3048 0.08042,0.0983 0.333586,0.3038 0.333586,0.3038 0,0 0.32068,-0.14992 0.419962,-0.22041 0.120132,-0.0864 0.146938,-0.27004 0.04468,-0.42194 -0.04071,-0.0606 -0.153886,-0.2075 -0.233311,-0.31274 z"
       id="path156"
       style="stroke-width:0.0992816" />
    <path
       fill="#212121"
       d="m 68.541585,129.41814 c 0.0834,-0.13006 -0.0099,-0.19161 -0.06453,-0.12807 -0.06155,0.0705 -0.224377,0.18267 -0.447761,0.10424 -0.124102,-0.0437 -0.207499,-0.0834 -0.255154,-0.22537 -0.03376,-0.10126 -0.02184,-0.23728 -0.02085,-0.34252 0,-0.0476 -0.212464,-0.0526 -0.226363,-0.0129 -0.02879,0.0814 -0.02681,0.1658 -0.02978,0.25118 -0.003,0.0943 -0.01588,0.2065 -0.0963,0.25614 -0.262104,0.16581 -0.416983,-0.0824 -0.447761,-0.11119 -0.01291,-0.0119 -0.04269,0.0645 -0.01688,0.14694 0.123109,0.39812 0.562928,0.32564 0.689015,0.13502 0.02283,0.15885 0.583777,0.44577 0.916371,-0.0735 z"
       id="path158"
       style="stroke-width:0.0992816" />
    <path
       fill="#825b4e"
       d="m 66.500352,132.42241 c 0.01688,0.0149 0.03872,0.0377 0.05461,0.0506 0.0417,0.0348 0.103253,0.0318 0.141973,-0.007 0.04468,-0.0467 0.09829,-0.12907 0.132045,-0.23927 0.06553,-0.20948 0.0417,-0.50237 -0.08538,-0.71284 l -0.119138,0.12112 c 0.09134,0.2899 0.0556,0.53712 -0.03674,0.692 -0.03674,0.0606 -0.08538,0.0903 -0.08737,0.0953 z m 3.095606,-1.95684 -0.07248,0.33457 c 0.310752,-0.0377 0.640367,-0.63937 0.640367,-0.63937 l 0.004,0.40209 c 0.397127,-0.21544 0.60264,-1.14075 0.60264,-1.14075 0.03574,0.44876 0.07545,1.44753 -1.266835,1.62127 -0.486481,0.0636 -0.995796,-0.137 -0.995796,-0.137 0,0 0.756527,-0.0496 1.088128,-0.44081 z"
       id="path160"
       style="stroke-width:0.0992816" />
    <g
       aria-label="Log"
       id="text344"
       style="font-size:12.0999px;font-family:'AR PL UKai CN';-inkscape-font-specification:'AR PL UKai CN';fill:#352722;stroke-width:6.78359;stroke-linecap:round;stroke-linejoin:round">
      <path
         d="m 49.548924,136.73352 q -0.375097,0 -0.580795,-0.2057 -0.205699,-0.2178 -0.205699,-0.59289 v -6.98165 q 0,-0.38719 0.193599,-0.58079 0.205698,-0.2057 0.580795,-0.2057 0.375097,0 0.568695,0.2057 0.205699,0.1936 0.205699,0.58079 v 6.46135 h 3.508971 q 0.326697,0 0.496096,0.1694 0.181498,0.1694 0.181498,0.484 0,0.31459 -0.181498,0.49609 -0.169399,0.1694 -0.496096,0.1694 z"
         style="font-weight:bold;font-family:Nunito;-inkscape-font-specification:'Nunito Bold'"
         id="path307" />
      <path
         d="m 58.055167,136.85452 q -0.919592,0 -1.597187,-0.3751 -0.677594,-0.37509 -1.052691,-1.06479 -0.375097,-0.70179 -0.375097,-1.64559 0,-0.71389 0.205698,-1.27048 0.217799,-0.5687 0.617095,-0.968 0.399297,-0.41139 0.955892,-0.61709 0.556596,-0.2178 1.24629,-0.2178 0.919593,0 1.597187,0.3751 0.677594,0.37509 1.052691,1.06479 0.375097,0.68969 0.375097,1.63348 0,0.7139 -0.217798,1.28259 -0.205698,0.5687 -0.604995,0.9801 -0.399297,0.39929 -0.955892,0.61709 -0.556595,0.2057 -1.24629,0.2057 z m 0,-1.14949 q 0.447697,0 0.786494,-0.2178 0.338797,-0.2178 0.520295,-0.64129 0.193599,-0.4356 0.193599,-1.0769 0,-0.96799 -0.411397,-1.43988 -0.411396,-0.484 -1.088991,-0.484 -0.447696,0 -0.786493,0.2178 -0.338798,0.2057 -0.532396,0.64129 -0.181498,0.4235 -0.181498,1.06479 0,0.9559 0.411396,1.45199 0.411397,0.484 1.088991,0.484 z"
         style="font-weight:bold;font-family:Nunito;-inkscape-font-specification:'Nunito Bold'"
         id="path309" />
      <path
         d="m 65.085213,139.0325 q -0.653395,0 -1.27049,-0.121 -0.604995,-0.121 -1.101091,-0.37509 -0.229898,-0.121 -0.314597,-0.2904 -0.0726,-0.1694 -0.0484,-0.3509 0.0363,-0.1694 0.145199,-0.3025 0.120999,-0.1331 0.290398,-0.1815 0.169398,-0.0484 0.350897,0.0484 0.532395,0.2662 1.004291,0.3388 0.483996,0.0847 0.822794,0.0847 0.810693,0 1.20999,-0.3993 0.411396,-0.38719 0.411396,-1.16159 v -1.08899 h 0.108899 q -0.181498,0.6171 -0.762293,0.99219 -0.568696,0.363 -1.29469,0.363 -0.798593,0 -1.391488,-0.363 -0.592895,-0.37509 -0.919593,-1.04059 -0.326697,-0.66549 -0.326697,-1.54878 0,-0.6655 0.181499,-1.19789 0.193598,-0.5445 0.532395,-0.9317 0.350897,-0.38719 0.834893,-0.59289 0.496096,-0.2178 1.088991,-0.2178 0.750194,0 1.306789,0.3751 0.568696,0.36299 0.738094,0.96799 l -0.120999,0.3025 v -0.8591 q 0,-0.37509 0.193599,-0.56869 0.205698,-0.1936 0.556595,-0.1936 0.362997,0 0.556596,0.1936 0.193598,0.1936 0.193598,0.56869 v 4.65847 q 0,1.43988 -0.762294,2.16588 -0.762293,0.72599 -2.214281,0.72599 z m -0.0363,-3.59367 q 0.471896,0 0.810693,-0.2178 0.338797,-0.2178 0.520296,-0.61709 0.193598,-0.4114 0.193598,-0.96799 0,-0.8349 -0.411396,-1.30679 -0.411397,-0.484 -1.113191,-0.484 -0.471896,0 -0.810693,0.2178 -0.338798,0.2178 -0.532396,0.61709 -0.181499,0.3993 -0.181499,0.9559 0,0.83489 0.411397,1.31889 0.411397,0.48399 1.113191,0.48399 z"
         style="font-weight:bold;font-family:Nunito;-inkscape-font-specification:'Nunito Bold'"
         id="path311" />
    </g>
    <path
       fill="#825b4e"
       d="m 69.838205,132.893 c -1.270807,-0.42889 -1.324419,-1.69474 -1.715589,-1.99258 -0.133038,-0.10226 -0.261111,-0.12708 -0.396134,-0.19757 -0.124102,-0.0645 -0.267068,-0.13006 -0.397127,-0.0784 0.08935,0.0606 0.169771,0.13602 0.234305,0.22339 -0.129067,0.0129 -0.320681,0.0288 -0.384221,0.1102 -0.01092,0.0139 0.004,0.0358 0.01986,0.0437 0.01588,0.008 0.228348,0.0467 0.312738,0.13204 -0.06751,0.0576 -0.144952,0.10524 -0.203528,0.17176 -0.03376,0.0377 -0.003,0.0616 0.01092,0.0655 0.09134,0.0248 0.1936,0.01 0.278982,0.0516 0.08538,0.0417 0.14793,0.12013 0.223384,0.17573 a 0.53810721,0.53810721 0 0 0 0.32068,0.10623 c 0.190621,0.39812 0.438826,0.72972 0.761491,1.02955 0.297846,0.277 0.665188,0.47457 1.073236,0.54903 1.283713,0.23431 1.853591,-1.07224 1.853591,-1.07224 0,0 -0.9124,1.04643 -1.992585,0.68206 z"
       id="path154"
       style="stroke-width:0.0992816" />
    <path
       fill="#825b4e"
       d="m 66.403056,130.86964 c 0.168779,-0.26409 0.466624,-0.34649 0.708871,-0.30876 0.01092,0.002 0.04071,0.0129 0.04865,0.0198 0.01588,0.0149 0.0089,0.0437 -0.0089,0.0576 -0.01688,0.0139 -0.04071,0.0169 -0.06155,0.0228 -0.121124,0.0298 -0.230334,0.12212 -0.251183,0.24523 0.08638,-0.0357 0.189628,-0.0278 0.270046,0.0189 0.02184,0.0129 0.04567,0.0387 0.03276,0.0616 -0.0069,0.0129 -0.02383,0.0179 -0.03872,0.0228 -0.105238,0.0338 -0.176721,0.14396 -0.193599,0.25317 0.05659,-0.0119 0.115167,-0.0248 0.17275,-0.0149 0.05758,0.01 0.13403,0.0586 0.128074,0.10325 -0.007,0.0476 -0.136016,0.0159 -0.194593,0.11814 -0.04071,0.0715 -0.06255,0.15786 -0.126087,0.20949 -0.05858,0.0476 -0.142966,0.0576 -0.215442,0.0357 -0.07247,-0.0209 -0.135023,-0.0695 -0.184664,-0.12608 -0.169772,-0.1936 -0.206506,-0.49244 -0.08638,-0.71881"
       id="path162"
       style="stroke-width:0.0992816" />
  </g>
</svg>
